<svg width="92" height="43" viewBox="0 0 92 43" fill="none" xmlns="http://www.w3.org/2000/svg">
<rect width="92" height="43" rx="21.5" fill="#D1E8F3"/>
<rect x="48" width="44" height="43" rx="21.5" fill="#1744DF"/>
<path d="M76.1395 21.3052C75.9212 21.0869 75.6563 20.9779 75.3444 20.9779H66.7407V17.2372C66.7407 16.4109 67.033 15.7057 67.6175 15.1212C68.2021 14.5368 68.9073 14.2445 69.7335 14.2445C70.5596 14.2445 71.2649 14.5368 71.8492 15.1212C72.4338 15.7057 72.7261 16.411 72.7261 17.2372C72.7261 17.4397 72.8001 17.6151 72.9481 17.7631C73.0963 17.9112 73.2717 17.9853 73.4741 17.9853H74.2226C74.4251 17.9853 74.6004 17.9112 74.7487 17.7631C74.8963 17.6151 74.9706 17.4397 74.9706 17.2372C74.9706 15.7953 74.4582 14.5622 73.4335 13.5373C72.4086 12.5123 71.1752 12 69.7335 12C68.2916 12 67.0584 12.5123 66.0334 13.5372C65.0087 14.562 64.4963 15.7952 64.4963 17.2371V20.9779H64.1222C63.8106 20.9779 63.5456 21.0871 63.3273 21.3051C63.1091 21.5232 63 21.7883 63 22.1V28.8336C63 29.1454 63.1091 29.4104 63.3273 29.6286C63.5456 29.8466 63.8106 29.9558 64.1222 29.9558H75.3444C75.6563 29.9558 75.9214 29.8466 76.1395 29.6286C76.3575 29.4104 76.4668 29.1454 76.4668 28.8336V22.1001C76.4669 21.7883 76.3578 21.5235 76.1395 21.3052Z" fill="white"/>
</svg>
