<svg width="78" height="78" viewBox="0 0 78 78" fill="none" xmlns="http://www.w3.org/2000/svg">
<rect x="9" y="9" width="60" height="60" rx="20" fill="#1744DF" fill-opacity="0.05"/>
<rect width="78" height="78" rx="26" fill="#1744DF" fill-opacity="0.05"/>
<path d="M50.894 41.9542C50.1827 41.5912 49.6815 40.7708 49.5862 39.8138L49.0303 34.2555C48.5388 29.345 44.7945 25.4095 40.1273 24.8952C40.029 24.8847 39.9317 24.8857 39.8335 24.8778V22.3333C39.8335 21.8727 39.4608 21.5 39.0002 21.5C38.5395 21.5 38.1668 21.8727 38.1668 22.3333V24.8722C36.1652 25.0368 34.2675 25.7863 32.6802 27.0713C30.5813 28.7722 29.2768 31.1892 29.0083 33.8763L28.4143 39.8138C28.3192 40.7708 27.8178 41.5912 27.1065 41.9542C25.487 42.781 24.596 44.5518 24.8897 46.3602C25.2127 48.341 27.056 49.8335 29.1783 49.8335H48.8218C50.945 49.8335 52.7892 48.341 53.1105 46.3602C53.4043 44.5518 52.5135 42.781 50.894 41.9542ZM51.4653 46.0932C51.2733 47.2748 50.1372 48.1667 48.8222 48.1667H29.1785C27.8642 48.1667 26.7273 47.2747 26.5353 46.0932C26.358 45.0027 26.8927 43.935 27.8652 43.4385C29.094 42.8102 29.9192 41.518 30.073 39.9798L30.667 34.0423C30.8908 31.8012 31.9788 29.7862 33.7302 28.3668C35.2348 27.1478 37.0773 26.5 39.0003 26.5C39.3128 26.5 39.6287 26.5178 39.9452 26.552C43.8352 26.98 46.9585 30.289 47.372 34.4215L47.9278 39.9798C48.0817 41.518 48.9068 42.8102 50.1357 43.4385C51.1082 43.935 51.6427 45.0027 51.4653 46.0932ZM54.8272 33.8958C54.8842 34.3532 54.5602 34.7698 54.1037 34.8268C54.0687 34.8317 54.0337 34.8333 53.9995 34.8333C53.5853 34.8333 53.2263 34.5257 53.1735 34.1042C52.6567 29.9668 50.365 26.2738 46.8868 23.9707C46.5027 23.7168 46.3977 23.1992 46.6517 22.815C46.9048 22.4325 47.4215 22.3283 47.8065 22.5807C51.6908 25.1538 54.2502 29.2783 54.8272 33.8958ZM24.8272 34.1042C24.7743 34.5257 24.4153 34.8333 24.0012 34.8333C23.967 34.8333 23.932 34.8317 23.897 34.8268C23.4405 34.7698 23.1165 34.3532 23.1735 33.8958C23.7505 29.2783 26.3098 25.154 30.1942 22.5807C30.5775 22.3283 31.0942 22.4325 31.349 22.815C31.6028 23.1992 31.498 23.7167 31.1138 23.9707C27.6357 26.2737 25.344 29.9668 24.8272 34.1042ZM41.5003 52.3333H43.167C43.167 54.6315 41.2977 56.5 39.0003 56.5C36.703 56.5 34.8337 54.6315 34.8337 52.3333H36.5003C36.5003 53.7118 37.6218 54.8333 39.0003 54.8333C40.3788 54.8333 41.5003 53.7118 41.5003 52.3333Z" fill="#2D5BFF"/>
</svg>
