<svg width="78" height="78" viewBox="0 0 78 78" fill="none" xmlns="http://www.w3.org/2000/svg">
<rect x="9" y="9" width="60" height="60" rx="20" fill="#1744DF" fill-opacity="0.05"/>
<rect width="78" height="78" rx="26" fill="#1744DF" fill-opacity="0.05"/>
<path d="M45.7771 50.5714H28.7943C27.5228 50.5714 26.3033 50.0663 25.4042 49.1672C24.5051 48.2681 24 47.0486 24 45.7771V28.7943C24 27.5228 24.5051 26.3033 25.4042 25.4042C26.3033 24.5051 27.5228 24 28.7943 24H45.7771C47.0486 24 48.2681 24.5051 49.1672 25.4042C50.0663 26.3033 50.5714 27.5228 50.5714 28.7943V45.7771C50.5714 47.0486 50.0663 48.2681 49.1672 49.1672C48.2681 50.0663 47.0486 50.5714 45.7771 50.5714ZM28.7943 26.1652C28.097 26.1652 27.4283 26.4422 26.9352 26.9352C26.4422 27.4283 26.1652 28.097 26.1652 28.7943V45.7771C26.1652 46.4744 26.4422 47.1431 26.9352 47.6362C27.4283 48.1292 28.097 48.4062 28.7943 48.4062H45.7771C46.4744 48.4062 47.1431 48.1292 47.6362 47.6362C48.1292 47.1431 48.4062 46.4744 48.4062 45.7771V28.7943C48.4062 28.097 48.1292 27.4283 47.6362 26.9352C47.1431 26.4422 46.4744 26.1652 45.7771 26.1652H28.7943Z" fill="#2D5BFF"/>
<path d="M48.4649 55H33.9181C33.6368 55 33.367 54.8883 33.1681 54.6893C32.9692 54.4904 32.8574 54.2206 32.8574 53.9393C32.8574 53.658 32.9692 53.3882 33.1681 53.1893C33.367 52.9904 33.6368 52.8786 33.9181 52.8786H48.4649C49.635 52.877 50.7568 52.4114 51.5843 51.584C52.4117 50.7566 52.8773 49.6348 52.8789 48.4646V33.9178C52.8789 33.6365 52.9906 33.3667 53.1896 33.1678C53.3885 32.9689 53.6583 32.8571 53.9396 32.8571C54.2209 32.8571 54.4907 32.9689 54.6896 33.1678C54.8885 33.3667 55.0003 33.6365 55.0003 33.9178V48.4646C54.9983 50.1973 54.3091 51.8584 53.0839 53.0836C51.8587 54.3088 50.1975 54.998 48.4649 55Z" fill="#2D5BFF"/>
</svg>
