<svg width="1440" height="711" viewBox="0 0 1440 711" fill="none" xmlns="http://www.w3.org/2000/svg">
<path d="M0 94.5191L1440 0V616.481L0 711V94.5191Z" fill="#1744DF"/>
<mask id="mask0_136_946" style="mask-type:alpha" maskUnits="userSpaceOnUse" x="0" y="0" width="1440" height="711">
<path d="M0 94.5191L1440 0V616.481L0 711V94.5191Z" fill="#1744DF"/>
</mask>
<g mask="url(#mask0_136_946)">
<line x1="702.5" y1="15" x2="702.5" y2="666" stroke="#4870F8"/>
<line x1="850.5" y1="15" x2="850.5" y2="666" stroke="#4870F8"/>
<line x1="997.5" y1="15" x2="997.5" y2="666" stroke="#4870F8"/>
<line x1="1145.5" y1="15" x2="1145.5" y2="666" stroke="#4870F8"/>
<line x1="1292.5" y1="15" x2="1292.5" y2="666" stroke="#4870F8"/>
<line x1="1552" y1="121.5" x2="578" y2="121.5" stroke="#4870F8"/>
<line x1="1552" y1="267.636" x2="578" y2="267.636" stroke="#4870F8"/>
<line x1="1552" y1="413.771" x2="578" y2="413.771" stroke="#4870F8"/>
<line x1="1552" y1="559.907" x2="578" y2="559.907" stroke="#4870F8"/>
</g>
<circle cx="1294" cy="120" r="38" fill="#4870F8" fill-opacity="0.5"/>
<circle cx="1294" cy="120" r="26.9167" fill="#4870F8" fill-opacity="0.5"/>
<circle cx="1294" cy="120" r="15" fill="white" fill-opacity="0.5"/>
<g style="mix-blend-mode:overlay">
<path d="M699 416L1294 120V592H699V416Z" fill="url(#paint0_linear_136_946)"/>
</g>
<g style="mix-blend-mode:overlay">
<path d="M699 416L1294 120V592H699V416Z" fill="url(#paint1_linear_136_946)"/>
</g>
<defs>
<linearGradient id="paint0_linear_136_946" x1="1032.5" y1="-80" x2="1160" y2="465" gradientUnits="userSpaceOnUse">
<stop stop-color="white"/>
<stop offset="1" stop-color="white" stop-opacity="0"/>
</linearGradient>
<linearGradient id="paint1_linear_136_946" x1="1032.5" y1="-80" x2="1160" y2="465" gradientUnits="userSpaceOnUse">
<stop stop-color="white"/>
<stop offset="1" stop-color="white" stop-opacity="0"/>
</linearGradient>
</defs>
</svg>
