<svg width="78" height="78" viewBox="0 0 78 78" fill="none" xmlns="http://www.w3.org/2000/svg">
<rect x="9" y="9" width="60" height="60" rx="20" fill="#1744DF" fill-opacity="0.05"/>
<rect width="78" height="78" rx="26" fill="#1744DF" fill-opacity="0.05"/>
<path d="M42.5368 47.4779L47.3015 52.2426C48.625 53.5662 50.9191 53.5662 52.2426 52.2426C53.6544 50.9191 53.6544 48.625 52.2426 47.3015L47.4779 42.5368C48.3603 40.8603 48.8897 38.9191 48.8897 36.8897C48.8897 36.5368 48.8897 36.1838 48.8015 35.9191L52.0662 32.6544C52.4191 32.3015 52.4191 31.7721 52.0662 31.4191C51.7132 31.0662 51.1838 31.0662 50.8309 31.4191L48.4485 33.8015C47.9191 31.7721 46.8603 30.0074 45.3603 28.5074C40.6838 23.8309 33.1838 23.8309 28.5074 28.5074C23.8309 33.1838 23.8309 40.6838 28.5074 45.3603C32.3897 49.2426 38.125 49.8603 42.5368 47.4779ZM50.9191 48.5368C51.625 49.2426 51.625 50.3015 50.9191 51.0074C50.2132 51.7132 49.1544 51.7132 48.4485 51.0074L43.9485 46.5074C44.3897 46.1544 44.8309 45.8015 45.2721 45.3603C45.7132 44.9191 46.0662 44.4779 46.4191 44.0368L50.9191 48.5368ZM29.7426 29.7426C33.7132 25.7721 40.1544 25.7721 44.125 29.7426C45.625 31.2426 46.5956 33.1838 46.9485 35.3015L45.1838 37.0662L42.2721 34.1544C41.9191 33.8015 41.3897 33.8015 41.0368 34.1544L36.4485 38.7426L34.4191 36.7132C34.0662 36.3603 33.5368 36.3603 33.1838 36.7132L29.6544 40.2426C29.3015 40.5956 29.3015 41.125 29.6544 41.4779C30.0074 41.8309 30.5368 41.8309 30.8897 41.4779L33.8015 38.5662C35.125 39.625 36.0956 41.5662 37.0662 40.5956L41.6544 36.0074L44.5662 38.9191C44.9191 39.2721 45.4485 39.2721 45.8015 38.9191L47.0368 37.6838C46.8603 40.1544 45.8015 42.3603 44.125 44.125C40.1544 48.0956 33.7132 48.0956 29.7426 44.125C25.7721 40.1544 25.7721 33.7132 29.7426 29.7426Z" fill="#1744DF"/>
</svg>
