<svg width="171" height="36" viewBox="0 0 171 36" fill="none" xmlns="http://www.w3.org/2000/svg">
<rect x="135" width="35.9895" height="35.9895" rx="17.9948" fill="#F6F5FF"/>
<path d="M148.854 24.4481V14.7263H145.626V24.4481H148.855H148.854ZM147.241 13.3991C148.366 13.3991 149.067 12.6526 149.067 11.7197C149.046 10.7655 148.366 10.0398 147.262 10.0398C146.157 10.0398 145.436 10.7655 145.436 11.7196C145.436 12.6525 146.136 13.3991 147.22 13.3991H147.241L147.241 13.3991ZM150.641 24.4481H153.87V19.0195C153.87 18.7294 153.891 18.4384 153.976 18.2312C154.209 17.6504 154.74 17.0492 155.633 17.0492C156.8 17.0492 157.268 17.9407 157.268 19.2477V24.4481H160.496V18.8739C160.496 15.8879 158.904 14.4983 156.78 14.4983C155.038 14.4983 154.273 15.4725 153.848 16.136H153.87V14.7266H150.642C150.684 15.6386 150.641 24.4484 150.641 24.4484L150.641 24.4481Z" fill="#767F98"/>
<rect x="90" width="35.9895" height="35.9895" rx="17.9948" fill="#F6F5FF"/>
<path d="M116.926 12.2971C116.332 12.553 115.708 12.7313 115.068 12.8274C115.367 12.7761 115.807 12.2372 115.982 12.0191C116.248 11.6901 116.451 11.3145 116.58 10.9114C116.58 10.8815 116.61 10.8387 116.58 10.8173C116.565 10.8091 116.548 10.8048 116.531 10.8048C116.514 10.8048 116.497 10.8091 116.482 10.8173C115.787 11.1938 115.048 11.4812 114.282 11.6727C114.255 11.6808 114.226 11.6816 114.199 11.6748C114.172 11.668 114.147 11.654 114.128 11.6342C114.068 11.5631 114.004 11.4959 113.935 11.4332C113.623 11.1528 113.268 10.9233 112.884 10.7532C112.366 10.5404 111.807 10.4483 111.248 10.4837C110.705 10.518 110.176 10.6636 109.692 10.9114C109.216 11.1727 108.797 11.5276 108.462 11.9549C108.109 12.3947 107.854 12.9051 107.714 13.4518C107.599 13.9718 107.586 14.5092 107.676 15.0342C107.676 15.124 107.676 15.1368 107.599 15.124C104.552 14.6749 102.052 13.5929 100.01 11.2706C99.9201 11.168 99.8731 11.168 99.8004 11.2706C98.9117 12.6221 99.3432 14.7605 100.454 15.8168C100.604 15.958 100.758 16.0948 100.92 16.2231C100.411 16.1869 99.9137 16.0488 99.4586 15.8168C99.3731 15.7612 99.3261 15.7912 99.3219 15.8938C99.3098 16.0361 99.3098 16.1792 99.3219 16.3215C99.411 17.0035 99.6796 17.6495 100.1 18.1935C100.52 18.7376 101.078 19.1601 101.715 19.4179C101.87 19.4844 102.032 19.5346 102.198 19.5676C101.726 19.6605 101.242 19.6749 100.766 19.6103C100.664 19.5889 100.625 19.6445 100.664 19.7429C101.292 21.4536 102.655 21.9754 103.655 22.2662C103.791 22.2876 103.928 22.2876 104.082 22.3218C104.082 22.3218 104.082 22.3218 104.056 22.3474C103.761 22.8863 102.569 23.2498 102.022 23.438C101.024 23.7969 99.9597 23.9341 98.9031 23.84C98.7365 23.8144 98.698 23.8187 98.6553 23.84C98.6126 23.8614 98.6553 23.9085 98.7023 23.9512C98.9159 24.0924 99.1296 24.2164 99.3518 24.3361C100.013 24.6973 100.713 24.9841 101.437 25.1915C105.189 26.2265 109.41 25.4652 112.226 22.6639C114.44 20.4657 115.217 17.4335 115.217 14.397C115.217 14.2815 115.358 14.2131 115.439 14.1532C115.999 13.7165 116.493 13.2007 116.905 12.6221C116.976 12.5358 117.013 12.426 117.008 12.3142V12.3142C117.008 12.25 117.008 12.2628 116.926 12.2971Z" fill="#767F98"/>
<rect x="45" width="35.9895" height="35.9895" rx="17.9948" fill="#F6F5FF"/>
<path d="M60.0004 18.041C60.0004 16.3832 61.3435 15.039 63.0008 15.039C64.6581 15.039 66.002 16.3832 66.002 18.041C66.002 19.6988 64.6581 21.0431 63.0008 21.0431C61.3435 21.0431 60.0004 19.6988 60.0004 18.041ZM58.378 18.041C58.378 20.5949 60.4476 22.6652 63.0008 22.6652C65.554 22.6652 67.6236 20.5949 67.6236 18.041C67.6236 15.4871 65.554 13.4169 63.0008 13.4169C60.4476 13.4169 58.378 15.4871 58.378 18.041ZM66.7263 13.2335C66.7262 13.4472 66.7895 13.6562 66.9081 13.834C67.0268 14.0117 67.1955 14.1503 67.3928 14.2322C67.5902 14.314 67.8074 14.3355 68.017 14.2939C68.2266 14.2523 68.4191 14.1495 68.5703 13.9984C68.7214 13.8473 68.8244 13.6548 68.8661 13.4452C68.9079 13.2356 68.8866 13.0183 68.8049 12.8208C68.7232 12.6233 68.5848 12.4545 68.4072 12.3357C68.2296 12.2169 68.0208 12.1534 67.8071 12.1533H67.8066C67.5202 12.1534 67.2456 12.2673 67.043 12.4698C66.8405 12.6724 66.7266 12.947 66.7263 13.2335V13.2335ZM59.3637 25.3712C58.486 25.3312 58.0089 25.1849 57.6918 25.0614C57.2715 24.8977 56.9716 24.7028 56.6563 24.3878C56.341 24.0728 56.1458 23.7731 55.9829 23.3527C55.8593 23.0357 55.7131 22.5583 55.6732 21.6803C55.6296 20.7311 55.6209 20.446 55.6209 18.0411C55.6209 15.6362 55.6303 15.3519 55.6732 14.4018C55.7132 13.5239 55.8605 13.0474 55.9829 12.7295C56.1465 12.3091 56.3414 12.0091 56.6563 11.6937C56.9712 11.3783 57.2708 11.183 57.6918 11.0201C58.0087 10.8964 58.486 10.7502 59.3637 10.7103C60.3127 10.6666 60.5977 10.6579 63.0008 10.6579C65.4039 10.6579 65.6893 10.6673 66.639 10.7103C67.5168 10.7503 67.993 10.8976 68.3109 11.0201C68.7312 11.183 69.0311 11.3787 69.3464 11.6937C69.6617 12.0086 69.8562 12.3091 70.0198 12.7295C70.1434 13.0465 70.2896 13.5239 70.3295 14.4018C70.3732 15.3519 70.3819 15.6362 70.3819 18.0411C70.3819 20.446 70.3732 20.7303 70.3295 21.6803C70.2895 22.5583 70.1426 23.0355 70.0198 23.3527C69.8562 23.7731 69.6613 24.0731 69.3464 24.3878C69.0315 24.7025 68.7312 24.8977 68.3109 25.0614C67.994 25.185 67.5168 25.3313 66.639 25.3712C65.6901 25.4148 65.405 25.4236 63.0008 25.4236C60.5966 25.4236 60.3124 25.4148 59.3637 25.3712V25.3712ZM59.2892 9.09018C58.3308 9.13384 57.6759 9.28585 57.1039 9.50846C56.5116 9.73835 56.0102 10.0468 55.5091 10.5472C55.0081 11.0476 54.7006 11.5499 54.4707 12.1424C54.2482 12.7149 54.0962 13.3696 54.0526 14.3283C54.0082 15.2885 53.998 15.5954 53.998 18.041C53.998 20.4866 54.0082 20.7936 54.0526 21.7538C54.0962 22.7125 54.2482 23.3672 54.4707 23.9396C54.7006 24.5317 55.0082 25.0347 55.5091 25.5349C56.0101 26.0351 56.5116 26.343 57.1039 26.5736C57.6769 26.7962 58.3308 26.9482 59.2892 26.9919C60.2496 27.0355 60.556 27.0464 63.0008 27.0464C65.4457 27.0464 65.7526 27.0362 66.7125 26.9919C67.671 26.9482 68.3254 26.7962 68.8977 26.5736C69.4897 26.343 69.9914 26.0353 70.4925 25.5349C70.9936 25.0344 71.3004 24.5317 71.5309 23.9396C71.7535 23.3672 71.9062 22.7124 71.9491 21.7538C71.9927 20.7928 72.0029 20.4866 72.0029 18.041C72.0029 15.5954 71.9927 15.2885 71.9491 14.3283C71.9054 13.3695 71.7535 12.7145 71.5309 12.1424C71.3004 11.5503 70.9928 11.0484 70.4925 10.5472C69.9922 10.046 69.4897 9.73835 68.8984 9.50846C68.3254 9.28585 67.6709 9.13312 66.7132 9.09018C65.7533 9.04652 65.4464 9.03564 63.0015 9.03564C60.5567 9.03564 60.2496 9.0458 59.2892 9.09018Z" fill="#767F98"/>
<path d="M60.0004 18.041C60.0004 16.3832 61.3435 15.039 63.0008 15.039C64.6581 15.039 66.002 16.3832 66.002 18.041C66.002 19.6988 64.6581 21.0431 63.0008 21.0431C61.3435 21.0431 60.0004 19.6988 60.0004 18.041ZM58.378 18.041C58.378 20.5949 60.4476 22.6652 63.0008 22.6652C65.554 22.6652 67.6236 20.5949 67.6236 18.041C67.6236 15.4871 65.554 13.4169 63.0008 13.4169C60.4476 13.4169 58.378 15.4871 58.378 18.041ZM66.7263 13.2335C66.7262 13.4472 66.7895 13.6562 66.9081 13.834C67.0268 14.0117 67.1955 14.1503 67.3928 14.2322C67.5902 14.314 67.8074 14.3355 68.017 14.2939C68.2266 14.2523 68.4191 14.1495 68.5703 13.9984C68.7214 13.8473 68.8244 13.6548 68.8661 13.4452C68.9079 13.2356 68.8866 13.0183 68.8049 12.8208C68.7232 12.6233 68.5848 12.4545 68.4072 12.3357C68.2296 12.2169 68.0208 12.1534 67.8071 12.1533H67.8066C67.5202 12.1534 67.2456 12.2673 67.043 12.4698C66.8405 12.6724 66.7266 12.947 66.7263 13.2335V13.2335ZM59.3637 25.3712C58.486 25.3312 58.0089 25.1849 57.6918 25.0614C57.2715 24.8977 56.9716 24.7028 56.6563 24.3878C56.341 24.0728 56.1458 23.7731 55.9829 23.3527C55.8593 23.0357 55.7131 22.5583 55.6732 21.6803C55.6296 20.7311 55.6209 20.446 55.6209 18.0411C55.6209 15.6362 55.6303 15.3519 55.6732 14.4018C55.7132 13.5239 55.8605 13.0474 55.9829 12.7295C56.1465 12.3091 56.3414 12.0091 56.6563 11.6937C56.9712 11.3783 57.2708 11.183 57.6918 11.0201C58.0087 10.8964 58.486 10.7502 59.3637 10.7103C60.3127 10.6666 60.5977 10.6579 63.0008 10.6579C65.4039 10.6579 65.6893 10.6673 66.639 10.7103C67.5168 10.7503 67.993 10.8976 68.3109 11.0201C68.7312 11.183 69.0311 11.3787 69.3464 11.6937C69.6617 12.0086 69.8562 12.3091 70.0198 12.7295C70.1434 13.0465 70.2896 13.5239 70.3295 14.4018C70.3732 15.3519 70.3819 15.6362 70.3819 18.0411C70.3819 20.446 70.3732 20.7303 70.3295 21.6803C70.2895 22.5583 70.1426 23.0355 70.0198 23.3527C69.8562 23.7731 69.6613 24.0731 69.3464 24.3878C69.0315 24.7025 68.7312 24.8977 68.3109 25.0614C67.994 25.185 67.5168 25.3313 66.639 25.3712C65.6901 25.4148 65.405 25.4236 63.0008 25.4236C60.5966 25.4236 60.3124 25.4148 59.3637 25.3712V25.3712ZM59.2892 9.09018C58.3308 9.13384 57.6759 9.28585 57.1039 9.50846C56.5116 9.73835 56.0102 10.0468 55.5091 10.5472C55.0081 11.0476 54.7006 11.5499 54.4707 12.1424C54.2482 12.7149 54.0962 13.3696 54.0526 14.3283C54.0082 15.2885 53.998 15.5954 53.998 18.041C53.998 20.4866 54.0082 20.7936 54.0526 21.7538C54.0962 22.7125 54.2482 23.3672 54.4707 23.9396C54.7006 24.5317 55.0082 25.0347 55.5091 25.5349C56.0101 26.0351 56.5116 26.343 57.1039 26.5736C57.6769 26.7962 58.3308 26.9482 59.2892 26.9919C60.2496 27.0355 60.556 27.0464 63.0008 27.0464C65.4457 27.0464 65.7526 27.0362 66.7125 26.9919C67.671 26.9482 68.3254 26.7962 68.8977 26.5736C69.4897 26.343 69.9914 26.0353 70.4925 25.5349C70.9936 25.0344 71.3004 24.5317 71.5309 23.9396C71.7535 23.3672 71.9062 22.7124 71.9491 21.7538C71.9927 20.7928 72.0029 20.4866 72.0029 18.041C72.0029 15.5954 71.9927 15.2885 71.9491 14.3283C71.9054 13.3695 71.7535 12.7145 71.5309 12.1424C71.3004 11.5503 70.9928 11.0484 70.4925 10.5472C69.9922 10.046 69.4897 9.73835 68.8984 9.50846C68.3254 9.28585 67.6709 9.13312 66.7132 9.09018C65.7533 9.04652 65.4464 9.03564 63.0015 9.03564C60.5567 9.03564 60.2496 9.0458 59.2892 9.09018Z" fill="#767F98"/>
<rect width="35.9895" height="35.9895" rx="17.9948" fill="#F6F5FF"/>
<path d="M22.3977 19.1663L22.9105 15.9083H19.7518V13.7906C19.7518 12.8997 20.1928 12.0292 21.6029 12.0292H23.0592V9.25479C22.2111 9.11955 21.3542 9.04639 20.4953 9.03589C17.8955 9.03589 16.1982 10.5987 16.1982 13.424V15.9083H13.3164V19.1663H16.1982V27.0466H19.7518V19.1663H22.3977Z" fill="#767F98"/>
</svg>
