<svg width="78" height="78" viewBox="0 0 78 78" fill="none" xmlns="http://www.w3.org/2000/svg">
<rect x="9" y="9" width="60" height="60" rx="20" fill="#1744DF" fill-opacity="0.05"/>
<rect width="78" height="78" rx="26" fill="#1744DF" fill-opacity="0.05"/>
<g clip-path="url(#clip0_136_815)">
<path d="M43.4329 28.2333C43.7827 28.2333 44.0663 28.5169 44.0663 28.8666V32.0333H45.9663C46.316 32.0333 46.5996 32.3169 46.5996 32.6666V49.1333C46.5996 49.483 46.316 49.7666 45.9663 49.7666H44.0663V52.2999C44.0663 52.6497 43.7827 52.9333 43.4329 52.9333C43.0832 52.9333 42.7996 52.6497 42.7996 52.2999V49.7666H40.8996C40.5499 49.7666 40.2663 49.483 40.2663 49.1333V32.6666C40.2663 32.3169 40.5499 32.0333 40.8996 32.0333H42.7996V28.8666C42.7996 28.5169 43.0832 28.2333 43.4329 28.2333ZM41.5329 33.2999V48.4999H45.3329V33.2999H41.5329Z" fill="#1845DF"/>
<path d="M34.5667 25.7C34.9165 25.7 35.2001 25.9835 35.2001 26.3333V29.5H37.1001C37.4498 29.5 37.7334 29.7835 37.7334 30.1333V46.6C37.7334 46.9497 37.4498 47.2333 37.1001 47.2333H35.2001V49.7666C35.2001 50.1164 34.9165 50.4 34.5667 50.4C34.217 50.4 33.9334 50.1164 33.9334 49.7666V47.2333H32.0334C31.6836 47.2333 31.4001 46.9497 31.4001 46.6V30.1333C31.4001 29.7835 31.6836 29.5 32.0334 29.5H33.9334V26.3333C33.9334 25.9835 34.217 25.7 34.5667 25.7ZM32.6667 30.7666V45.9666H36.4667V30.7666H32.6667Z" fill="#1845DF"/>
<path d="M25.6995 33.3C26.0493 33.3 26.3329 33.5836 26.3329 33.9334V37.1H28.2329C28.5826 37.1 28.8662 37.3836 28.8662 37.7334V54.2C28.8662 54.5498 28.5826 54.8334 28.2329 54.8334H26.3329V57.3667C26.3329 57.7165 26.0493 58 25.6995 58C25.3498 58 25.0662 57.7165 25.0662 57.3667V54.8334H23.1662C22.8165 54.8334 22.5329 54.5498 22.5329 54.2V37.7334C22.5329 37.3836 22.8165 37.1 23.1662 37.1H25.0662V33.9334C25.0662 33.5836 25.3498 33.3 25.6995 33.3ZM23.7995 38.3667V53.5667H27.5995V38.3667H23.7995Z" fill="#1845DF"/>
<path d="M52.3001 20C52.6499 20 52.9335 20.2836 52.9335 20.6333V23.8H54.8335C55.1832 23.8 55.4668 24.0836 55.4668 24.4333V40.9C55.4668 41.2498 55.1832 41.5333 54.8335 41.5333H52.9335V44.0667C52.9335 44.4164 52.6499 44.7 52.3001 44.7C51.9504 44.7 51.6668 44.4164 51.6668 44.0667V41.5333H49.7668C49.417 41.5333 49.1335 41.2498 49.1335 40.9V24.4333C49.1335 24.0836 49.417 23.8 49.7668 23.8H51.6668V20.6333C51.6668 20.2836 51.9504 20 52.3001 20ZM50.4001 25.0667V40.2667H54.2001V25.0667H50.4001Z" fill="#1845DF"/>
</g>
<defs>
<clipPath id="clip0_136_815">
<rect width="38" height="38" fill="white" transform="matrix(-1 0 0 1 58 20)"/>
</clipPath>
</defs>
</svg>
